<svg width="118" height="38" viewBox="0 0 118 38" fill="none" xmlns="http://www.w3.org/2000/svg">
<path fill-rule="evenodd" clip-rule="evenodd" d="M85.5231 19.6579C87.1625 20.1288 87.5664 20.9119 88.593 22.1925C89.8124 23.7127 90.8691 25.0558 92.0889 26.5778H89.7557C88.9202 26.5778 88.1287 26.1264 87.5799 25.484C87.0359 24.8067 86.495 24.1317 85.9518 23.4546C85.3985 22.766 84.9549 22.105 84.0774 21.8256C83.6739 21.6944 83.1157 21.622 82.5439 21.6134V26.546H81.0428C80.3438 26.546 79.7334 26.1922 79.7334 25.3811V9.49219H81.4213C82.0389 9.49219 82.5439 10.0172 82.5439 10.658V19.1599L86.601 14.7286C87.1948 14.087 88.0658 13.5625 88.8015 13.5625H91.0401C89.1572 15.5822 87.2716 17.6037 85.3877 19.6235C85.4331 19.6343 85.4771 19.6466 85.5231 19.6579ZM101.291 17.6269C101.172 16.7605 100.538 16.0895 99.747 15.8378C98.8484 15.5445 97.1815 15.5472 96.3022 15.8829C95.4375 16.2191 94.9468 17.0232 94.8903 17.9549C94.8494 18.6086 94.8582 19.1576 94.8582 19.8121C96.7139 19.4371 98.5698 19.0628 100.426 18.6877C100.426 18.6877 101.415 18.5543 101.291 17.6269ZM103.065 20.3249C102.707 20.6143 102.344 20.7685 101.971 20.8494L94.9394 22.2677C94.9394 22.4411 94.9919 22.6069 95.0265 22.7576C95.2705 23.6949 95.8992 24.181 96.8121 24.2849C97.0694 24.3131 97.3443 24.3302 97.597 24.3302H102.166C102.784 24.3302 103.289 24.8548 103.289 25.4953V26.5777C101.136 26.577 98.9091 26.5777 96.7561 26.5777C94.5321 26.577 92.8289 25.8321 92.2552 23.4896C91.8504 21.8817 91.8301 18.5828 92.1876 16.9518C92.2835 16.4902 92.4351 16.0706 92.6399 15.6827C92.8443 15.299 93.1202 14.951 93.4642 14.6382C94.158 14.0337 95.0288 13.6959 95.915 13.5444C97.3516 13.2969 99.7608 13.3099 101.144 13.674C102.742 14.1061 103.785 15.1942 104.092 16.8946C104.338 18.2556 104.021 19.5533 103.065 20.3249ZM114.822 17.6269C114.701 16.7605 114.068 16.0895 113.276 15.8378C112.377 15.5445 110.71 15.5472 109.833 15.8829C108.966 16.2191 108.476 17.0232 108.42 17.9549C108.378 18.6086 108.388 19.1576 108.388 19.8121C110.243 19.4371 112.1 19.0628 113.956 18.6877C113.956 18.6877 114.944 18.5543 114.822 17.6269ZM116.593 20.3249C116.234 20.6143 115.871 20.7685 115.5 20.8494L108.467 22.2677C108.467 22.4411 108.518 22.6069 108.553 22.7576C108.799 23.6949 109.427 24.181 110.339 24.2849C110.596 24.3131 110.871 24.3302 111.124 24.3302H115.695C116.311 24.3302 116.816 24.8548 116.816 25.4953V26.5777C114.664 26.577 112.437 26.5777 110.284 26.5777C108.059 26.577 106.356 25.8321 105.783 23.4896C105.377 21.8817 105.358 18.5828 105.714 16.9518C105.811 16.4902 105.963 16.0706 106.167 15.6827C106.372 15.299 106.648 14.951 106.992 14.6382C107.685 14.0337 108.556 13.6959 109.443 13.5444C110.88 13.2969 113.288 13.3099 114.673 13.674C116.27 14.1061 117.313 15.1942 117.62 16.8946C117.865 18.2556 117.548 19.5533 116.593 20.3249Z" fill="#31394E"/>
<path fill-rule="evenodd" clip-rule="evenodd" d="M18.7537 24.3966C17.9224 23.549 17.0907 22.7026 16.2591 21.8547C16.2076 21.8089 16.157 21.7617 16.1073 21.7103C15.9739 21.5737 15.8415 21.4352 15.711 21.2961C15.4128 20.9926 15.1148 20.6887 14.8177 20.3864C11.3446 20.9449 7.87222 21.505 4.39909 22.0645C4.14713 22.1273 3.89805 22.1572 3.65472 22.1572C3.04948 22.1572 2.49356 21.9675 2.05431 21.6271C1.98618 21.5737 1.92056 21.5164 1.85742 21.4565V32.7847C1.85742 33.6722 2.19938 34.4802 2.75051 35.0683C3.28897 35.643 4.02355 36.0022 4.82875 36.0124C4.83258 36.012 4.86386 36.0084 4.8631 36.0124C5.64757 36.0124 6.35912 35.6776 6.87743 35.1345C6.88415 35.1262 6.89029 35.1195 6.89854 35.1114C7.42587 34.5495 7.75248 33.7671 7.75248 32.9C7.75248 29.5503 7.75344 26.2001 7.75344 22.8508C7.74519 22.7349 7.79048 22.6093 7.88796 22.5129C8.04992 22.3514 8.29209 22.3348 8.43026 22.4756C10.2047 24.2845 11.9796 26.093 13.754 27.9012C16.0541 30.2433 18.3536 32.5878 20.6535 34.9296C20.6569 34.9325 20.661 34.9363 20.664 34.9394C20.6637 34.9404 20.6637 34.9404 20.6633 34.9404V34.9408L20.6637 34.9404C21.9119 36.0849 23.1224 36.2079 24.0604 35.7812C24.834 35.4303 25.4402 34.7054 25.729 33.8685C26.0673 32.8878 25.9617 31.7681 25.1801 30.9452C25.1782 30.9431 25.175 30.9402 25.1734 30.9383C25.1723 30.9365 25.1715 30.9365 25.1703 30.9354C25.1711 30.9352 25.1715 30.9352 25.1715 30.9352C23.032 28.7545 20.893 26.5762 18.7537 24.3966ZM21.1697 20.0164C21.357 19.6953 21.4198 19.3815 21.2949 19.1412C21.1905 18.9402 21.0331 18.7098 20.8122 18.4439L14.4714 11.1059C13.966 10.5218 13.4465 9.94416 12.8984 9.38137C12.4183 8.88968 11.7991 8.65185 11.1861 8.66441C9.88892 8.69127 8.90814 9.82206 8.93308 11.1957C8.94613 11.863 9.19598 12.5259 9.6811 13.0234C9.797 13.1422 9.88489 13.2339 9.95109 13.3033C10.0069 13.362 10.0626 13.4211 10.1182 13.4801C11.8528 13.4781 13.5587 13.7681 14.9467 14.4621C16.5441 15.2608 17.7189 16.5884 18.0413 18.6126C18.0846 18.885 18.1128 19.1678 18.1242 19.4605C18.1328 19.6713 17.9668 19.8744 17.7548 19.9144C17.7381 19.9171 17.7216 19.919 17.7052 19.9201C17.0835 20.0202 16.4612 20.1207 15.8394 20.221C15.9181 20.3077 15.9956 20.3927 16.073 20.4764C16.1474 20.5564 16.2228 20.6379 16.2986 20.7183C16.4733 20.8962 16.6473 21.0741 16.8225 21.2517C17.4322 21.7772 18.2274 21.8257 18.981 21.6091C19.7789 21.3792 20.7249 20.7783 21.1697 20.0164ZM22.0659 18.4073C22.2409 18.5155 22.481 18.46 22.7318 18.2981C23.3827 17.8795 23.9152 16.9629 24.1238 16.1965C24.3318 15.4293 24.29 14.6175 23.7822 14.0141C23.7755 14.0078 23.7684 14.0002 23.7619 13.9937C23.7627 13.9929 23.763 13.9929 23.763 13.9929C22.7157 12.7896 22.2319 12.2406 21.7487 11.6904C21.302 11.1826 20.8564 10.6757 19.7324 9.38627C19.3287 8.92105 18.7877 8.67646 18.241 8.65559C17.7693 8.63627 17.1336 8.83372 16.7949 9.21722C16.3708 9.63839 16.1338 10.2012 16.0985 10.7761C16.0661 11.2987 16.1991 11.8293 16.5124 12.2672C17.8428 13.9007 19.2544 15.4009 20.6263 16.9652C21.0571 17.456 21.5159 18.0676 22.0659 18.4073ZM24.2537 8.32131C24.2537 6.57113 23.5801 4.97743 22.4963 3.82037C21.417 2.66871 19.9337 1.95349 18.3058 1.95349H7.69031C6.0872 1.95349 4.63033 2.6521 3.57566 3.7767C2.51582 4.90827 1.85742 6.47646 1.85742 8.20674V19.4312C1.85838 19.4312 1.85877 19.4312 1.85877 19.4312C1.85877 19.4389 1.85838 19.4468 1.85838 19.4555C1.85915 19.6188 1.87776 19.7745 1.91039 19.9198C2.01056 20.3695 2.251 20.7366 2.57857 20.9907C2.90594 21.2443 3.32025 21.3865 3.76967 21.3865C3.94218 21.3865 4.12026 21.3653 4.30257 21.3216C4.32368 21.3141 4.34632 21.3085 4.36858 21.3054V21.3071C7.90331 20.7374 11.4384 20.1688 14.9739 19.5985C15.7597 19.4754 16.5461 19.3456 17.3318 19.2187C17.3191 19.0908 17.3035 18.9654 17.2844 18.845C17 17.0552 15.9518 15.8759 14.5268 15.164C13.6097 14.7059 12.5355 14.4372 11.4033 14.3215C9.86468 14.1638 8.67301 14.2392 7.12978 14.518C6.9185 14.557 6.74138 14.4175 6.73428 14.2081C6.72814 13.9984 6.89509 13.7966 7.10636 13.7583C7.72868 13.6457 8.37115 13.5636 9.0165 13.5195C8.46614 12.9117 8.18175 12.1209 8.16755 11.3254C8.13282 9.45848 9.5446 7.92873 11.2859 7.89202C12.0797 7.8756 12.8771 8.17757 13.485 8.80121C14.1359 9.46987 14.7446 10.1532 15.3326 10.8445C15.3811 10.0717 15.7062 9.30604 16.2792 8.73012C16.2769 8.7278 16.3178 8.69244 16.3208 8.68916C16.9084 8.12212 17.6545 7.85512 18.3872 7.88372C19.1097 7.91212 19.8197 8.22877 20.3428 8.82942C21.3881 10.0303 21.8736 10.5821 22.3571 11.132C22.7879 11.6208 23.2189 12.1103 24.2537 13.2981V8.32131ZM27.251 30.5939C29.2694 34.4459 25.0197 39.9088 20.5634 37.277C19.5193 36.6605 18.7299 35.7189 17.8746 34.8476L9.59406 26.411V32.837C9.59406 33.4687 9.4864 34.073 9.28875 34.6314C7.77104 38.9364 1.8211 39.1706 0.276907 34.5479C0.098251 34.0122 0 33.4368 0 32.837V8.26C0 3.71366 3.48023 0 7.74014 0H18.3551C22.615 0 26.0943 3.71366 26.0943 8.26V15.0042C26.0943 17.0581 24.968 19.521 23.0663 20.2441C22.6426 21.5737 21.406 22.6258 20.2407 23.1689L24.6804 27.6923C25.418 28.4434 26.7183 29.5794 27.251 30.5939ZM47.2186 15.3936C45.9755 15.0762 44.5361 15.4566 44.1625 17.3152C44.0742 17.7576 44.0396 18.1923 44.0396 18.7V26.1776H42.3598C41.7469 26.1776 41.2452 25.6486 41.2452 25.0037V17.9866C41.1737 16.7856 40.9261 15.7414 39.7126 15.2704C39.607 15.2302 39.4896 15.1952 39.3652 15.1645C39.4305 14.9048 39.4975 14.645 39.5635 14.3853C39.6632 13.9943 39.7216 13.6732 40.0591 13.4004C40.6569 12.9147 41.3608 13.2557 41.934 13.6158C42.1729 13.7658 42.388 13.9294 42.5419 14.0671C42.9646 13.6732 43.4743 13.3933 44.0389 13.207C45.4058 12.754 47.1854 12.834 48.5475 13.1956C48.8378 13.275 49.1105 13.3766 49.3625 13.4999C49.0917 14.0136 48.823 14.5283 48.5523 15.042C48.1881 15.7304 47.8141 15.5457 47.2186 15.3936ZM59.6766 17.0416C59.2781 15.8797 58.6928 15.3412 57.1841 15.2164C56.4697 15.1577 55.861 15.1577 55.1458 15.2164C53.6373 15.3412 53.0524 15.8797 52.6538 17.0416C52.1961 18.3184 52.1961 20.982 52.6538 22.2589C53.0524 23.4214 53.6373 23.9588 55.1458 24.0831C55.861 24.1416 56.4697 24.1416 57.1841 24.0831C58.6928 23.9588 59.2781 23.4214 59.6766 22.2589C60.1345 20.982 60.1345 18.3184 59.6766 17.0416ZM62.1432 23.7577C61.4562 25.2134 60.2321 25.9356 58.7631 26.2148C57.2577 26.5009 55.0709 26.5009 53.5647 26.2148C52.0953 25.9356 50.8716 25.2134 50.1846 23.7577C49.966 23.2926 49.8029 22.8069 49.6953 22.3048C49.3333 20.675 49.3333 18.6257 49.6953 16.9959C49.8029 16.4934 49.966 16.0085 50.1846 15.5431C50.8716 14.0861 52.0953 13.3653 53.5647 13.0862C55.0709 12.8002 57.2577 12.8002 58.7631 13.0862C60.2321 13.3653 61.4562 14.0861 62.1432 15.5431C62.3618 16.0085 62.5253 16.4934 62.6325 16.9959C62.995 18.6257 62.995 20.675 62.6325 22.3048C62.5253 22.8069 62.3618 23.2926 62.1432 23.7577ZM74.6053 17.0416C74.2075 15.8797 73.6222 15.3412 72.1133 15.2164C71.3989 15.1577 70.7896 15.1577 70.0752 15.2164C68.5667 15.3412 67.9818 15.8797 67.5832 17.0416C67.1246 18.3184 67.1246 20.982 67.5832 22.2589C67.9818 23.4214 68.5667 23.9588 70.0752 24.0831C70.7896 24.1416 71.3989 24.1416 72.1133 24.0831C73.6222 23.9588 74.2075 23.4214 74.6053 22.2589C75.063 20.982 75.063 18.3184 74.6053 17.0416ZM77.0723 23.7577C76.3856 25.2134 75.1614 25.9356 73.6923 26.2148C72.1863 26.5009 70 26.5009 68.494 26.2148C67.0248 25.9356 65.8007 25.2134 65.1139 23.7577C64.8954 23.2926 64.7321 22.8069 64.6244 22.3048C64.2619 20.675 64.2619 18.6257 64.6244 16.9959C64.7321 16.4934 64.8954 16.0085 65.1139 15.5431C65.8007 14.0861 67.0248 13.3653 68.494 13.0862C70 12.8002 72.1863 12.8002 73.6923 13.0862C75.1614 13.3653 76.3856 14.0861 77.0723 15.5431C77.2909 16.0085 77.4542 16.4934 77.5617 16.9959C77.9244 18.6257 77.9244 20.675 77.5617 22.3048C77.4542 22.8069 77.2909 23.2926 77.0723 23.7577Z" fill="#31394E"/>
<path d="M41.1084 37.9433H42.3424V36.0316C42.6347 36.389 43.0406 36.6965 43.6982 36.6965C44.7292 36.6965 45.6791 35.882 45.6791 34.3942V34.3776C45.6791 32.8898 44.713 32.0752 43.6982 32.0752C43.0568 32.0752 42.6428 32.3828 42.3424 32.7984V32.1584H41.1084V37.9433ZM43.3816 35.6243C42.8052 35.6243 42.3262 35.134 42.3262 34.3942V34.3776C42.3262 33.6378 42.8052 33.1475 43.3816 33.1475C43.958 33.1475 44.4451 33.6378 44.4451 34.3776V34.3942C44.4451 35.1423 43.958 35.6243 43.3816 35.6243Z" fill="#31394E"/>
<path d="M48.722 36.7132C50.0777 36.7132 51.0844 35.6742 51.0844 34.3942V34.3776C51.0844 33.0976 50.0859 32.0752 48.7382 32.0752C47.3824 32.0752 46.3757 33.1142 46.3757 34.3942V34.4108C46.3757 35.6908 47.3743 36.7132 48.722 36.7132ZM48.7382 35.6243C48.0562 35.6243 47.5935 35.0508 47.5935 34.3942V34.3776C47.5935 33.721 48.0156 33.1641 48.722 33.1641C49.4039 33.1641 49.8667 33.7376 49.8667 34.3942V34.4108C49.8667 35.0675 49.4445 35.6243 48.7382 35.6243Z" fill="#31394E"/>
<path d="M52.7542 36.6467H53.8583L54.7107 33.9121L55.5469 36.6467H56.6592L58.0149 32.1584H56.7891L56.0746 34.868L55.2465 32.1417H54.183L53.3631 34.8597L52.6649 32.1584H51.4146L52.7542 36.6467Z" fill="#31394E"/>
<path d="M60.6205 36.7132C61.408 36.7132 61.9925 36.3973 62.3984 35.882L61.6921 35.242C61.3511 35.5662 61.0508 35.6991 60.6367 35.6991C60.0847 35.6991 59.695 35.3999 59.5732 34.8264H62.6014C62.6095 34.7101 62.6176 34.5937 62.6176 34.494C62.6176 33.2306 61.9519 32.0752 60.4987 32.0752C59.2322 32.0752 58.3473 33.1225 58.3473 34.3942V34.4108C58.3473 35.774 59.3134 36.7132 60.6205 36.7132ZM59.557 34.0368C59.6544 33.4633 59.9872 33.0893 60.4987 33.0893C61.0183 33.0893 61.343 33.4716 61.4161 34.0368H59.557Z" fill="#31394E"/>
<path d="M63.5373 36.6134H64.7713V34.9677C64.7713 33.9038 65.2747 33.3968 66.0946 33.3968H66.1596V32.0752C65.4289 32.042 65.023 32.441 64.7713 33.056V32.1584H63.5373V36.6134Z" fill="#31394E"/>
<path d="M68.8737 36.7132C69.6612 36.7132 70.2458 36.3973 70.6517 35.882L69.9454 35.242C69.6044 35.5662 69.304 35.6991 68.89 35.6991C68.3379 35.6991 67.9482 35.3999 67.8265 34.8264H70.8546C70.8628 34.7101 70.8709 34.5937 70.8709 34.494C70.8709 33.2306 70.2052 32.0752 68.752 32.0752C67.4855 32.0752 66.6006 33.1225 66.6006 34.3942V34.4108C66.6006 35.774 67.5667 36.7132 68.8737 36.7132ZM67.8102 34.0368C67.9076 33.4633 68.2405 33.0893 68.752 33.0893C69.2715 33.0893 69.5963 33.4716 69.6693 34.0368H67.8102Z" fill="#31394E"/>
<path d="M73.5766 36.6965C74.218 36.6965 74.632 36.389 74.9324 35.9734V36.6134H76.1664V30.5459H74.9324V32.7402C74.6401 32.3828 74.2342 32.0752 73.5766 32.0752C72.5456 32.0752 71.5957 32.8898 71.5957 34.3776V34.3942C71.5957 35.882 72.5618 36.6965 73.5766 36.6965ZM73.8932 35.6243C73.3168 35.6243 72.8297 35.134 72.8297 34.3942V34.3776C72.8297 33.6295 73.3168 33.1475 73.8932 33.1475C74.4697 33.1475 74.9486 33.6378 74.9486 34.3776V34.3942C74.9486 35.134 74.4697 35.6243 73.8932 35.6243Z" fill="#31394E"/>
<path d="M82.2927 36.6965C83.3238 36.6965 84.2736 35.882 84.2736 34.3942V34.3776C84.2736 32.8898 83.3075 32.0752 82.2927 32.0752C81.6513 32.0752 81.2373 32.3828 80.9369 32.7984V30.5459H79.7029V36.6134H80.9369V36.0316C81.2292 36.389 81.6351 36.6965 82.2927 36.6965ZM81.9761 35.6243C81.3997 35.6243 80.9207 35.134 80.9207 34.3942V34.3776C80.9207 33.6378 81.3997 33.1475 81.9761 33.1475C82.5525 33.1475 83.0396 33.6378 83.0396 34.3776V34.3942C83.0396 35.1423 82.5525 35.6243 81.9761 35.6243Z" fill="#31394E"/>
<path d="M86.883 35.1921L85.8926 32.1584H84.5855L86.2904 36.6301C86.1848 36.8545 86.0712 36.921 85.8601 36.921C85.6977 36.921 85.4947 36.8462 85.3324 36.7464L84.9183 37.6607C85.235 37.8519 85.5678 37.9682 86.0143 37.9682C86.7531 37.9682 87.1103 37.6275 87.4432 36.7215L89.1156 32.1584H87.8329L86.883 35.1921Z" fill="#31394E"/>
<path d="M92.4638 36.6134H93.714V30.7952H92.4638V36.6134Z" fill="#31394E"/>
<path d="M95.0043 36.6134H96.2384V34.1282C96.2384 33.5298 96.5387 33.2223 97.0096 33.2223C97.4805 33.2223 97.7565 33.5298 97.7565 34.1282V36.6134H98.9905V33.7293C98.9905 32.7069 98.4466 32.0752 97.513 32.0752C96.8878 32.0752 96.5225 32.416 96.2384 32.7901V32.1584H95.0043V36.6134Z" fill="#31394E"/>
<path d="M102.011 37.9599C102.855 37.9599 103.48 37.7771 103.886 37.3615C104.252 36.9875 104.438 36.4056 104.438 35.6077V32.1584H103.204V32.7402C102.872 32.3662 102.474 32.0752 101.8 32.0752C100.801 32.0752 99.8677 32.8233 99.8677 34.1532V34.1698C99.8677 35.4914 100.785 36.2477 101.8 36.2477C102.457 36.2477 102.855 35.9734 103.221 35.5246V35.7407C103.221 36.5386 102.823 36.9542 101.979 36.9542C101.402 36.9542 100.956 36.8046 100.509 36.5469L100.087 37.4945C100.639 37.7937 101.305 37.9599 102.011 37.9599ZM102.157 35.2004C101.556 35.2004 101.102 34.7849 101.102 34.1698V34.1532C101.102 33.5464 101.556 33.1225 102.157 33.1225C102.758 33.1225 103.221 33.5464 103.221 34.1532V34.1698C103.221 34.7765 102.758 35.2004 102.157 35.2004Z" fill="#31394E"/>
<path d="M106.775 36.6965C107.376 36.6965 107.79 36.4721 108.09 36.1314V36.6134H109.284V34.0285C109.284 33.4301 109.137 32.9397 108.813 32.6072C108.504 32.2914 108.017 32.1085 107.343 32.1085C106.604 32.1085 106.134 32.2498 105.655 32.4659L105.963 33.4301C106.361 33.2804 106.694 33.189 107.165 33.189C107.782 33.189 108.098 33.4799 108.098 34.0036V34.0784C107.79 33.9703 107.473 33.8955 107.035 33.8955C106.004 33.8955 105.281 34.3443 105.281 35.3168V35.3334C105.281 36.2145 105.955 36.6965 106.775 36.6965ZM107.148 35.8238C106.751 35.8238 106.475 35.6243 106.475 35.2836V35.2669C106.475 34.868 106.799 34.6519 107.327 34.6519C107.627 34.6519 107.903 34.7184 108.114 34.8181V35.0425C108.114 35.4997 107.725 35.8238 107.148 35.8238Z" fill="#31394E"/>
<path d="M111.775 36.6882C112.189 36.6882 112.49 36.5885 112.749 36.4306V35.4165C112.571 35.5163 112.368 35.5745 112.141 35.5745C111.865 35.5745 111.743 35.4332 111.743 35.1423V33.2389H112.766V32.1584H111.743V31.0197H110.509V32.1584H109.989V33.2389H110.509V35.3501C110.509 36.3807 111.02 36.6882 111.775 36.6882Z" fill="#31394E"/>
<path d="M115.618 36.7132C116.406 36.7132 116.99 36.3973 117.396 35.882L116.69 35.242C116.349 35.5662 116.049 35.6991 115.635 35.6991C115.083 35.6991 114.693 35.3999 114.571 34.8264H117.599C117.607 34.7101 117.616 34.5937 117.616 34.494C117.616 33.2306 116.95 32.0752 115.497 32.0752C114.23 32.0752 113.345 33.1225 113.345 34.3942V34.4108C113.345 35.774 114.311 36.7132 115.618 36.7132ZM114.555 34.0368C114.652 33.4633 114.985 33.0893 115.497 33.0893C116.016 33.0893 116.341 33.4716 116.414 34.0368H114.555Z" fill="#31394E"/>
</svg>